<svg width="590" height="265" viewBox="0 0 590 265" fill="none" xmlns="http://www.w3.org/2000/svg">
<g clip-path="url(#clip0_1672_13)">
<path d="M465.815 176.667C465.815 165.067 463.53 153.58 459.091 142.863C454.651 132.146 448.145 122.408 439.942 114.206C431.74 106.003 422.002 99.4965 411.285 95.0573C400.568 90.6182 389.081 88.3334 377.481 88.3334C365.881 88.3334 354.395 90.6182 343.678 95.0573C332.96 99.4965 323.223 106.003 315.02 114.206C306.818 122.408 300.311 132.146 295.872 142.863C291.433 153.58 289.148 165.067 289.148 176.667L377.481 176.667H465.815Z" fill="#232323"/>
<path d="M289.148 176.667C289.148 165.067 286.863 153.58 282.424 142.863C277.985 132.146 271.478 122.408 263.276 114.206C255.073 106.003 245.335 99.4965 234.618 95.0573C223.901 90.6182 212.415 88.3334 200.815 88.3334C189.215 88.3334 177.728 90.6182 167.011 95.0573C156.294 99.4965 146.556 106.003 138.354 114.206C130.151 122.408 123.644 132.146 119.205 142.863C114.766 153.58 112.481 165.067 112.481 176.667L200.815 176.667H289.148Z" fill="#232323"/>
<path d="M200.815 176.667C200.815 188.267 203.099 199.753 207.539 210.47C211.978 221.187 218.484 230.925 226.687 239.128C234.889 247.33 244.627 253.837 255.344 258.276C266.061 262.715 277.548 265 289.148 265C300.748 265 312.235 262.715 322.952 258.276C333.669 253.837 343.406 247.33 351.609 239.128C359.811 230.925 366.318 221.187 370.757 210.47C375.196 199.753 377.481 188.267 377.481 176.667L289.148 176.667L200.815 176.667Z" fill="#232323"/>
<path d="M377.481 88.3334C377.481 76.7333 375.196 65.2468 370.757 54.5297C366.318 43.8126 359.811 34.0748 351.609 25.8723C343.406 17.6698 333.669 11.1633 322.952 6.72409C312.234 2.28493 300.748 0.000121563 289.148 0.00012207C277.548 0.000122577 266.061 2.28493 255.344 6.72409C244.627 11.1633 234.889 17.6698 226.687 25.8723C218.484 34.0749 211.978 43.8126 207.539 54.5297C203.099 65.2468 200.815 76.7333 200.815 88.3334L289.148 88.3334L377.481 88.3334Z" fill="#232323"/>
</g>
<defs>
<clipPath id="clip0_1672_13">
<rect width="590" height="265" fill="white"/>
</clipPath>
</defs>
</svg>
