<svg width="590" height="360" viewBox="0 0 590 360" fill="none" xmlns="http://www.w3.org/2000/svg">
<path fill-rule="evenodd" clip-rule="evenodd" d="M294.996 237.316C294.867 222.34 291.856 207.525 286.122 193.683C280.261 179.532 271.67 166.675 260.839 155.845C250.009 145.014 237.152 136.423 223.001 130.562C208.851 124.701 193.685 121.684 178.368 121.684C163.052 121.684 147.886 124.701 133.735 130.562C119.585 136.423 106.727 145.014 95.8971 155.845C85.0668 166.675 76.4758 179.532 70.6145 193.683C64.7532 207.833 61.7365 223 61.7365 238.316L178.368 238.316H178.373C178.501 253.292 181.513 268.107 187.246 281.949C193.108 296.099 201.699 308.957 212.529 319.787C223.359 330.617 236.217 339.208 250.367 345.07C264.517 350.931 279.684 353.948 295 353.948C310.316 353.948 325.483 350.931 339.633 345.07C353.784 339.208 366.641 330.617 377.471 319.787C388.301 308.957 396.892 296.099 402.754 281.949C408.488 268.107 411.499 253.292 411.628 238.316H411.632H528.264C528.264 223 525.247 207.833 519.386 193.683C513.524 179.532 504.933 166.675 494.103 155.845C483.273 145.014 470.415 136.423 456.265 130.562C442.115 124.701 426.948 121.684 411.632 121.684C396.316 121.684 381.149 124.701 366.999 130.562C352.848 136.423 339.991 145.014 329.161 155.845C318.331 166.675 309.739 179.532 303.878 193.683C298.144 207.525 295.133 222.34 295.004 237.316H295H294.996Z" fill="#232323"/>
<path d="M411.632 121.684C411.632 106.368 408.615 91.2015 402.754 77.051C396.892 62.9006 388.301 50.0432 377.471 39.213C366.641 28.3827 353.784 19.7917 339.633 13.9304C325.483 8.06908 310.316 5.05231 295 5.05231C279.684 5.05231 264.517 8.06908 250.367 13.9304C236.217 19.7917 223.359 28.3827 212.529 39.213C201.699 50.0432 193.108 62.9006 187.246 77.051C181.385 91.2015 178.368 106.368 178.368 121.684L295 121.684L411.632 121.684Z" fill="#232323"/>
</svg>
